<svg xmlns="http://www.w3.org/2000/svg" xmlns:xlink="http://www.w3.org/1999/xlink" width="715.093" height="477.377" viewBox="0 0 715.093 477.377"><defs><style>.a{fill:url(#a);}.b{fill:#3c3274;}.c{fill:url(#b);}.d{fill:url(#c);}.e{fill:url(#e);}.f{fill:url(#f);}.g{fill:url(#g);}.h{fill:url(#h);}.i{fill:url(#i);}.j{fill:#4e3c8b;}.k{fill:url(#j);}.l{fill:url(#k);}.m{fill:url(#l);}.n{fill:none;}.o{fill:#262429;opacity:0.3;}</style><linearGradient id="a" x1="2.194" y1="-0.343" x2="-0.144" y2="0.82" gradientUnits="objectBoundingBox"><stop offset="0.098" stop-color="#00dbff" stop-opacity="0"/><stop offset="0.139" stop-color="#19c0f2" stop-opacity="0.208"/><stop offset="0.184" stop-color="#2fa7e7" stop-opacity="0.392"/><stop offset="0.234" stop-color="#4492de" stop-opacity="0.557"/><stop offset="0.29" stop-color="#5580d5" stop-opacity="0.698"/><stop offset="0.353" stop-color="#6271cf" stop-opacity="0.808"/><stop offset="0.427" stop-color="#6d66ca" stop-opacity="0.894"/><stop offset="0.518" stop-color="#745ec6" stop-opacity="0.957"/><stop offset="0.646" stop-color="#785ac4" stop-opacity="0.992"/><stop offset="1" stop-color="#7a59c4"/></linearGradient><linearGradient id="b" x1="2.293" y1="-0.143" x2="-0.045" y2="1.02" gradientUnits="objectBoundingBox"><stop offset="0.337" stop-color="#00dbff" stop-opacity="0"/><stop offset="0.487" stop-color="#00dbff" stop-opacity="0.008"/><stop offset="0.572" stop-color="#00dbff" stop-opacity="0.043"/><stop offset="0.64" stop-color="#00dbff" stop-opacity="0.094"/><stop offset="0.7" stop-color="#00dbff" stop-opacity="0.173"/><stop offset="0.754" stop-color="#00dbff" stop-opacity="0.275"/><stop offset="0.804" stop-color="#00dbff" stop-opacity="0.396"/><stop offset="0.851" stop-color="#00dbff" stop-opacity="0.545"/><stop offset="0.896" stop-color="#00dbff" stop-opacity="0.714"/><stop offset="0.937" stop-color="#00dbff" stop-opacity="0.902"/><stop offset="0.956" stop-color="#00dbff"/></linearGradient><linearGradient id="c" x1="1.831" y1="-0.162" x2="0.269" y2="0.615" xlink:href="#b"/><linearGradient id="e" x1="-0.523" y1="-38.667" x2="-2.442" y2="-37.393" xlink:href="#b"/><linearGradient id="f" x1="-0.739" y1="0.5" x2="1.686" y2="0.5" xlink:href="#b"/><linearGradient id="g" x1="1.914" y1="-0.899" x2="-0.038" y2="1.032" xlink:href="#a"/><linearGradient id="h" x1="1.863" y1="-0.754" x2="0.061" y2="1.029" xlink:href="#b"/><linearGradient id="i" x1="0.332" y1="-50.545" x2="-1.471" y2="-48.762" xlink:href="#b"/><linearGradient id="j" x1="-0.739" y1="0.5" x2="1.686" y2="0.5" xlink:href="#a"/><linearGradient id="k" x1="-0.634" y1="0.5" x2="1.254" y2="0.5" gradientUnits="objectBoundingBox"><stop offset="0.337" stop-color="#00dbff" stop-opacity="0"/><stop offset="0.382" stop-color="#00dbff" stop-opacity="0.031"/><stop offset="0.45" stop-color="#00dbff" stop-opacity="0.118"/><stop offset="0.535" stop-color="#00dbff" stop-opacity="0.259"/><stop offset="0.632" stop-color="#00dbff" stop-opacity="0.451"/><stop offset="0.74" stop-color="#00dbff" stop-opacity="0.702"/><stop offset="0.854" stop-color="#00dbff"/></linearGradient><linearGradient id="l" x1="-0.977" y1="1.386" x2="0.944" y2="0.112" xlink:href="#b"/></defs><g transform="translate(0.353 -83.963)"><g transform="translate(317.458 243.515)"><rect class="a" width="317.825" height="317.825"/><path class="b" d="M610.951,786.406V468.581H928.776Z" transform="translate(-610.951 -468.581)"/><path class="c" d="M928.776,786.406H610.951L928.776,468.581Z" transform="translate(-610.951 -468.581)"/><path class="d" d="M928.776,786.406,610.951,468.581H928.776Z" transform="translate(-610.951 -468.581)"/></g><g transform="translate(555.827 402.145)"><rect class="a" width="158.913" height="158.913" transform="translate(0 0)"/><rect class="b" width="79.456" height="158.913" transform="translate(79.456 0)"/><path class="e" d="M1168.769,892.885a59.592,59.592,0,1,0,0-119.184h-99.321l.154,119.184Z" transform="translate(-1069.449 -773.701)"/><rect class="f" width="79.173" height="158.913" transform="translate(0.154 0)"/></g><g transform="translate(317.458 83.964)"><rect class="g" width="158.629" height="79.79" transform="translate(0 79.79)"/><rect class="b" width="158.629" height="79.505" transform="translate(0 0.284)"/><path class="h" d="M650.608,161.686a39.9,39.9,0,0,0,0,79.79H769.58v-79.79Z" transform="translate(-610.951 -161.686)"/><path class="i" d="M729.923,394.95a39.9,39.9,0,0,0,0-79.79H610.951v79.79Z" transform="translate(-610.951 -235.37)"/></g><g transform="translate(-0.353 83.963)"><rect class="j" width="317.527" height="318.181" transform="translate(0.567)"/><rect class="k" width="158.555" height="318.181" transform="translate(0.567)"/><path class="l" d="M.738,162.777,318.415,480.391H.738Z" transform="translate(-0.171 -162.21)"/><path class="m" d="M198.549,161.686q-5.9,0-11.653.567H-.353V400.322h198.9a119.318,119.318,0,1,0,0-238.636Z" transform="translate(0.353 -161.686)"/></g><line class="n" x1="0.741" transform="translate(195.043 242.949)"/><rect class="o" width="317.385" height="158.913" transform="translate(317.626 402.145)"/></g></svg>